<?xml version="1.0" encoding="utf-8"?>
<!-- Generator: Adobe Illustrator 28.1.0, SVG Export Plug-In . SVG Version: 6.00 Build 0)  -->
<svg version="1.1" id="Layer_1" xmlns="http://www.w3.org/2000/svg" xmlns:xlink="http://www.w3.org/1999/xlink" x="0px" y="0px"
	 viewBox="0 0 107.73 121.18" style="enable-background:new 0 0 107.73 121.18;" xml:space="preserve">
<style type="text/css">
	.st0{fill:#FFFFFF;}
	.st1{fill:#FFE600;}
	.st2{fill:none;stroke:#FFE601;stroke-width:8;stroke-miterlimit:10;}
	.st3{fill:#FEDB00;}
</style>
<path class="st3" d="M53.87,27.06c-14.61,0-26.49,11.88-26.49,26.49c0,14.61,11.89,26.49,26.49,26.49c14.61,0,26.5-11.88,26.5-26.49
	C80.36,38.94,68.47,27.06,53.87,27.06 M53.87,88.08c-19.04,0-34.53-15.49-34.53-34.53c0-19.04,15.49-34.53,34.53-34.53
	s34.53,15.49,34.53,34.53C88.39,72.59,72.9,88.08,53.87,88.08"/>
<rect x="39.15" y="92.61" class="st3" width="29.43" height="8"/>
<rect x="49.85" class="st3" width="8" height="12.73"/>
<rect y="49.55" class="st3" width="12.73" height="8"/>
<rect x="95" y="49.55" class="st3" width="12.73" height="8"/>
<rect x="15.79" y="14.42" transform="matrix(0.7071 -0.7071 0.7071 0.7071 -8.9015 20.0854)" class="st3" width="8" height="12.73"/>
<rect x="81.32" y="16.79" transform="matrix(0.7071 -0.7071 0.7071 0.7071 10.9851 68.0949)" class="st3" width="12.73" height="8"/>
<rect x="39.15" y="103.24" class="st3" width="29.43" height="8"/>
<rect x="47.25" y="113.18" class="st3" width="13.23" height="8"/>
</svg>
